<?xml version="1.0" encoding="UTF-8" standalone="no"?>

<svg
   width="22"
   height="22"
   viewBox="0 0 5.8208332 5.8208335"
   version="1.1"
   id="svg5"
   xmlns="http://www.w3.org/2000/svg"
>
  <defs
     id="defs2" />
  <g
     id="layer3">
    <circle
       style="fill:#ffffff"
       id="path862"
       cx="2.9095533"
       cy="2.9321082"
       r="2.9095533" />
  </g>
  <g
     id="layer1"
     style="display:inline">
    <g
       style="fill:currentColor"
       id="g836"
       transform="matrix(0.26458333,0,0,0.26458333,0.8379813,0.81540471)">
      <path
         d="m 8.5,5.5 a 0.5,0.5 0 0 0 -1,0 v 3.362 l -1.429,2.38 a 0.50034713,0.50034713 0 1 0 0.858,0.515 l 1.5,-2.5 A 0.5,0.5 0 0 0 8.5,9 Z"
         id="path824" />
      <path
         d="m 6.5,0 a 0.5,0.5 0 0 0 0,1 H 7 V 2.07 A 7.001,7.001 0 0 0 3.727,14.544 l -0.602,0.602 a 0.50027817,0.50027817 0 0 0 0.707,0.708 L 4.578,15.108 A 6.97,6.97 0 0 0 8,16 6.97,6.97 0 0 0 11.422,15.108 l 0.746,0.746 a 0.50027817,0.50027817 0 0 0 0.707,-0.708 L 12.274,14.544 A 7.001,7.001 0 0 0 9,2.07 V 1 h 0.5 a 0.5,0.5 0 0 0 0,-1 z m 1.038,3.018 a 6.093,6.093 0 0 1 0.924,0 6,6 0 1 1 -0.924,0 z M 0,3.5 C 0,4.253 0.333,4.929 0.86,5.387 A 8.035,8.035 0 0 1 4.387,1.86 2.5,2.5 0 0 0 0,3.5 Z M 13.5,1 C 12.747,1 12.071,1.333 11.613,1.86 A 8.035,8.035 0 0 1 15.14,5.387 2.5,2.5 0 0 0 13.5,1 Z"
         id="path826" />
    </g>
  </g>
</svg>
